# xmcd
#
# Track frame offsets:
# 183
# 14498
# 29405
# 45825
# 58758
# 76618
# 95658
# 110258
# 126495
# 138710
# 156895
# 171378
#
# Disc length: 2490 seconds
#
#
# Revision: 1
# Processed by: cddbd v1.4PL0 Copyright (c) Steve Scherf et al.
# Submitted via: FreeRIP 2.52 
#
DISCID=9e09b80c
DTITLE=Nicola Di Bari - I Grandi Successi Originali cd1
DYEAR=1900
DGENRE=pop
TTITLE0=La prima cosa bella
TTITLE1=Il mondo gira
TTITLE2=Agnese
TTITLE3=Se mai ti parlassero di me
TTITLE4=Paese
TTITLE5=Ragazzo mio
TTITLE6=Il cuore è uno zingaro
TTITLE7=Zapponeta
TTITLE8=Il mondo è grigio il mondo è blu
TTITLE9=Una ragazzina come tè
TTITLE10=Lontano lontano
TTITLE11=Mi sono innamorato di tè
EXTD=
EXTT0=
EXTT1=
EXTT2=
EXTT3=
EXTT4=
EXTT5=
EXTT6=
EXTT7=
EXTT8=
EXTT9=
EXTT10=
EXTT11=
PLAYORDER=
